<?xml version="1.0" encoding="UTF-8"?>
<svg xmlns="http://www.w3.org/2000/svg" viewBox="0 0 1268.1 215.1" role="img" aria-labelledby="federant-title">
  <title id="federant-title">Federant logo</title>
  <path fill="#ffffff" d="M320.6 99.3h57.2c2 0 3.2 1 3.2 3v12.8c0 2-1.2 3.2-3.2 3.2h-57.2v37c0 1.9-1.3 3-3.3 3h-17c-2.2 0-3.2-1.2-3.2-3V59.9c0-1.9 1-3 3.2-3h89c2 0 3.2 1.2 3.2 3v12.9c0 1.9-1.2 3-3.2 3h-68.7v23.5Zm180.7-42.4c2 0 3.2 1.2 3.2 3v12.9c0 1.9-1.2 3-3.2 3h-71.9v22h60.4c2 0 3.3 1 3.3 3v12.5c0 1.9-1.3 3-3.3 3h-60.4v22.9h71.9c2 0 3.2 1.2 3.2 3v12.9c0 1.9-1.2 3-3.2 3h-92.2c-2.2 0-3.2-1.2-3.2-3V59.9c0-1.9 1-3 3.2-3h92.2Zm92.2 0c19.9 0 32 11.4 32 30.6v40.3c0 19.1-12.2 30.6-32 30.6h-68.4c-2.2 0-3.2-1.2-3.2-3V59.9c0-1.9 1-3 3.2-3h68.4Zm-48.1 82.4h38.8c13 0 18-4.1 18-15.1V90.9c0-10.9-4.9-15.1-18-15.1h-38.8v63.5Zm193.9-82.4c2 0 3.2 1.2 3.2 3v12.9c0 1.9-1.2 3-3.2 3h-71.9v22h60.4c2 0 3.3 1 3.3 3v12.5c0 1.9-1.3 3-3.3 3h-60.4v22.9h71.9c2 0 3.2 1.2 3.2 3v12.9c0 1.9-1.2 3-3.2 3h-92.2c-2.2 0-3.2-1.2-3.2-3V59.9c0-1.9 1-3 3.2-3h92.2ZM863 79.5v20c0 15.7-7.2 23.6-23.8 23.6h-3.9l30.7 32.2c1.3 1.2.6 3-1 3h-21.9c-2.8 0-3.9-.6-5.4-2.3l-28.5-31.9h-25.8v31.2c0 1.9-1.3 3-3.3 3h-17c-2.2 0-3.2-1.2-3.2-3V59.9c0-1.9 1-3 3.2-3h76.1c16.5 0 23.8 7.1 23.8 22.6Zm-79.6 25.6h44.2c10.2 0 11.9-1.7 11.9-10.2v-9c0-8.4-1.7-10.2-11.9-10.2h-44.2V105Zm173.9 33.8h-54.8l-7 16.5c-.9 2-2 2.9-4.5 2.9h-18c-1.9 0-2.6-1.4-1.9-3.2l42.5-95.4c.7-2 2-2.9 4.5-2.9h24.6c2.5 0 3.6.9 4.5 2.9l42.5 95.4c.7 1.7 0 3.2-1.7 3.2h-19.1c-2.6 0-3.6-.9-4.5-2.9l-7.1-16.5Zm-47-18.6h39.1l-19.6-45.9-19.6 45.9Zm195.1-63.5H1090c-2 0-3.3 1.2-3.3 3.1v79.7l-48.6-80.3c-.6-1.1-1.3-1.8-2.3-2.1V97l35.6 58.8c1 1.9 2.2 2.5 4.5 2.5h29.4c2 0 3.2-1.2 3.2-3V59.9c0-1.9-1.2-3.1-3.2-3.1Zm-104.2 3.1v95.4c0 1.9 1 3 3.2 3h15.3c2 0 3.2-1.2 3.2-3V56.8h-18.5c-2.2 0-3.2 1.2-3.2 3.1Zm159.2 15.9h-35.9c-2.2 0-3.2-1.2-3.2-3V59.9c0-1.9 1-3 3.2-3h95.2c2.2 0 3.2 1.2 3.2 3v12.9c0 1.9-1 3-3.2 3h-35.8v79.4c0 1.9-1.3 3-3.3 3h-17c-2 0-3.2-1.2-3.2-3V75.8Z"/>
  <path fill="#8000ff" d="m201 160.9-60.2-8.6c-2.7-.4-4.1 3-2 4.7l39.5 31.7c-7.9 6.9-16.8 12.6-26.4 17-.6.3-1.2.6-1.8.8L125.7 176c-1.8-2.2-5.3-.5-4.7 2.2l7.5 34.9c-6.7 1.3-13.7 2-20.8 2s-13.8-.7-20.4-1.9v-93.8h127.3c-1.6 15-6.3 29.1-13.5 41.6ZM107.1 0l22.6 56.5c1 2.5 4.7 2.1 5.1-.6l7.7-50.1c9.9 3.4 19.3 8.2 27.9 14.4.5.4 1.1.8 1.6 1.2l-14.2 36.4c-1 2.6 2.2 4.8 4.3 2.9l26.5-24c4.5 5.2 8.6 10.9 12.2 17 3.5 6 6.3 12.3 8.5 18.7L128 119.3 64.3 9.1C78.1 3 92.7 0 107.1 0Z"/>
  <path fill="#8000ff" d="M14.7 161.8 52.3 114c1.7-2.1-.5-5.1-3.1-4.1L2 128.3C0 118-.5 107.4.5 96.9c0-.7.1-1.3.2-2L39.3 89c2.8-.4 3.1-4.3.4-5.2l-34-11c2.2-6.5 5.1-12.9 8.7-19 3.5-6 7.5-11.6 11.9-16.7L107.6 84 43.9 194.3c-12.2-8.9-22-20-29.2-32.4Z"/>
  <path fill="#ffffff" d="M1230.4 31.4h-6.9c-.4 0-.6-.2-.6-.6v-1.7c0-.4.2-.6.6-.6h17.2c.4 0 .6.2.6.6v1.7c0 .4-.2.6-.6.6h-6.9V47c0 .4-.2.6-.6.6h-2.2c-.4 0-.6-.2-.6-.6V31.4Zm18.4-2.8c.5 0 .7.2.8.5l6.4 15.3 6.4-15.3c.1-.4.3-.5.8-.5h4.3c.4 0 .6.2.6.6v17.9c0 .4-.2.6-.6.6h-2.2c-.4 0-.6-.2-.6-.6V31.5l-6.7 15.6c-.1.4-.3.5-.8.5h-2.6c-.5 0-.7-.2-.8-.5l-6.7-15.7V47c0 .4-.2.6-.6.6h-2c-.4 0-.6-.2-.6-.6V29.1c0-.4.2-.6.6-.6h4.3Z"/>
</svg>
